<?xml version="1.0" standalone="no"?>
<!DOCTYPE svg PUBLIC "-//W3C//DTD SVG 20010904//EN"
 "http://www.w3.org/TR/2001/REC-SVG-20010904/DTD/svg10.dtd">
<svg version="1.0" xmlns="http://www.w3.org/2000/svg"
 width="100.000000pt" height="97.000000pt" viewBox="0 0 100.000000 97.000000"
 preserveAspectRatio="xMidYMid meet">
<metadata>
Created by potrace 1.15, written by Peter Selinger 2001-2017
</metadata>
<g transform="translate(0.000000,97.000000) scale(0.100000,-0.100000)"
fill="#000000" stroke="none">
<path d="M312 856 c-95 -46 -178 -88 -184 -94 -9 -9 -97 -368 -98 -398 0 -12
221 -290 252 -317 16 -13 39 -17 115 -17 93 0 96 1 123 30 15 16 36 30 47 30
15 0 16 2 3 10 -13 9 -12 12 4 25 26 20 29 19 41 -7 9 -20 18 -23 80 -25 61
-3 68 -1 53 11 -29 21 -22 36 15 31 l32 -5 -32 10 c-18 6 -33 17 -33 25 0 11
12 13 53 10 54 -5 48 -1 -15 10 -29 4 -38 11 -38 25 0 17 4 18 26 10 14 -6 40
-9 57 -9 25 1 21 3 -17 10 -56 9 -79 25 -56 39 19 13 106 13 129 1 13 -7 18
-6 18 5 0 11 -21 14 -109 14 l-108 0 26 40 c22 34 32 40 63 41 31 2 32 3 8 6
-41 6 -28 28 19 31 66 4 104 12 104 23 0 6 -7 6 -19 -1 -11 -5 -40 -10 -65
-10 -36 0 -44 3 -40 15 4 10 21 16 48 17 37 1 38 2 8 5 -38 5 -39 26 -1 32 19
3 21 5 7 10 -16 6 -16 8 1 30 15 19 21 21 38 13 15 -9 20 -8 20 4 0 7 -9 14
-19 14 -15 0 -17 3 -8 18 49 80 48 74 34 131 -6 29 -18 59 -25 66 -19 16 -355
175 -371 175 -7 -1 -91 -38 -186 -84z m206 -75 c3 -44 1 -42 81 -72 18 -7 47
-24 63 -37 l29 -25 28 27 c29 28 55 33 67 14 4 -7 -8 -24 -30 -43 -38 -32 -38
-32 -22 -63 22 -42 20 -57 -8 -76 -24 -15 -25 -15 -36 19 -6 19 -14 35 -16 35
-12 0 -74 -56 -74 -66 0 -6 14 -15 32 -20 l32 -9 -72 -53 c-39 -28 -77 -49
-85 -46 -7 2 -19 -6 -27 -20 -7 -14 -31 -37 -54 -52 l-40 -27 46 -13 c25 -8
52 -21 59 -31 13 -15 10 -16 -37 -9 l-52 6 -16 -40 c-16 -41 -42 -53 -52 -25
-4 8 1 26 10 40 23 35 21 43 -21 84 -21 20 -45 50 -53 66 -21 41 -27 44 -66
32 -25 -8 -38 -7 -46 1 -17 17 -1 42 26 42 47 0 56 9 56 59 0 25 10 66 21 91
l20 44 -37 31 c-22 19 -34 36 -30 43 12 19 38 14 67 -14 l28 -27 29 25 c16 13
45 30 63 37 82 31 79 28 79 69 0 68 33 71 38 3z"/>
</g>
</svg>
